<?xml version="1.0" encoding="UTF-8"?>
<svg width="265px" height="54px" viewBox="0 0 265 54" version="1.1" xmlns="http://www.w3.org/2000/svg" xmlns:xlink="http://www.w3.org/1999/xlink">
    <!-- Generator: Sketch 50.2 (55047) - http://www.bohemiancoding.com/sketch -->
    <title>Brand/Blue</title>
    <desc>Created with Sketch.</desc>
    <defs>
        <polygon id="path-1" points="20.4917295 27.9587456 20.4917295 0.46697234 0.361502314 0.46697234 0.361502314 27.9587456 20.4917295 27.9587456"></polygon>
        <polygon id="path-3" points="0 0.228334407 0 17.0500046 8.84244182 17.0500046 8.84244182 0.228334407 0 0.228334407"></polygon>
        <polygon id="path-5" points="14.9943477 0.490841311 0.367868863 0.490841311 0.367868863 18.0854312 14.9943477 18.0854312 14.9943477 0.490841311"></polygon>
    </defs>
    <g id="Brand/Blue" stroke="none" stroke-width="1" fill="none" fill-rule="evenodd">
        <g id="Branding">
            <g id="Wordmark" transform="translate(61.000000, 0.000000)">
                <path d="M71.6685158,45.9461122 L71.6685158,49.2137277 L60.7132356,49.2137277 L60.7132356,45.9461122 L64.0200963,45.9461122 L64.0200963,34.4827929 C64.0200963,28.7252451 61.8222992,25.1464527 57.5347758,25.1464527 C53.5152895,25.1464527 50.8889541,28.1023737 49.9243416,31.6299073 L49.9243416,45.9461122 L53.2306673,45.9461122 L53.2306673,49.2137277 L42.3299575,49.2137277 L42.3299575,45.9461122 L45.9043203,45.9461122 L45.9043203,12.0231786 L42.3299575,12.0231786 L42.3299575,8.75504533 L49.3877324,8.75504533 L49.3877324,26.4429365 C51.1029558,23.6423451 53.8903274,21.7224722 58.0173496,21.7224722 C64.50267,21.7224722 68.0401176,26.7535956 68.0401176,33.9122158 L68.0401176,45.9461122 L71.6685158,45.9461122 Z" id="Fill-1" fill="white"></path>
                <path d="M78.6767494,33.6531779 L93.790617,33.6531779 C93.5760803,27.5839355 90.4142057,25.0940031 86.2871836,25.0940031 C82.1071961,25.0940031 79.266324,28.673831 78.6767494,33.6531779 M97.5966366,36.6608754 L97.3285995,37.0248642 L93.6301158,37.0248642 L78.623249,36.9730877 C78.9982869,42.7818943 81.9996602,46.3606867 86.5552207,46.3606867 C89.6641299,46.3606867 92.0753937,45.0647206 93.0940416,42.1600584 L97.1135279,42.1600584 C96.0419145,46.620087 92.2369649,49.732373 86.5552207,49.732373 C78.9982869,49.732373 74.5491922,43.8712721 74.5491922,35.6243096 C74.5491922,27.8951123 78.8372506,21.7223168 86.2871836,21.7223168 C92.9335403,21.7223168 98.6142145,26.4427812 97.5966366,36.6608754" id="Fill-3" fill="white"></path>
                <path d="M108.839375,25.6650463 L108.839375,40.7594521 C108.839375,44.493574 110.340061,46.3088584 112.966932,46.3088584 C114.521119,46.3088584 116.289843,45.7905755 117.898065,44.9605981 L117.898065,48.3845787 C116.182842,49.2658148 114.03908,49.7323212 112.215786,49.7323212 C107.714261,49.7323212 104.819888,47.0875771 104.819888,41.0183346 L104.819888,25.6650463 L101.067904,25.6650463 L101.067904,22.2415834 L104.819888,22.2415834 L104.819888,8.75535599 L108.839375,8.75535599 L108.839375,22.2415834 L118.112067,22.2415834 L118.112067,25.6650463 L108.839375,25.6650463 Z" id="Fill-5" fill="white"></path>
                <path d="M152.150102,45.9461122 L152.150102,49.2137277 L141.194821,49.2137277 L141.194821,45.9461122 L144.501682,45.9461122 L144.501682,34.4827929 C144.501682,28.7252451 142.303885,25.1464527 138.016362,25.1464527 C133.996875,25.1464527 131.37054,28.1023737 130.405927,31.6299073 L130.405927,45.9461122 L133.712253,45.9461122 L133.712253,49.2137277 L122.811543,49.2137277 L122.811543,45.9461122 L126.385906,45.9461122 L126.385906,12.0231786 L122.865044,12.0231786 L122.865044,8.75504533 L129.869318,8.75504533 L129.869318,26.4429365 C131.584542,23.6423451 134.371913,21.7224722 138.4984,21.7224722 C144.984256,21.7224722 148.521703,26.7535956 148.521703,33.9122158 L148.521703,45.9461122 L152.150102,45.9461122 Z" id="Fill-7" fill="white"></path>
                <path d="M159.158335,33.6531779 L174.272203,33.6531779 C174.057666,27.5839355 170.895792,25.0940031 166.76877,25.0940031 C162.588782,25.0940031 159.74791,28.673831 159.158335,33.6531779 M178.078223,36.6608754 L177.810185,37.0248642 L174.111702,37.0248642 L159.104835,36.9730877 C159.479873,42.7818943 162.481246,46.3606867 167.036807,46.3606867 C170.145716,46.3606867 172.55698,45.0647206 173.575627,42.1600584 L177.595114,42.1600584 C176.5235,46.620087 172.718551,49.732373 167.036807,49.732373 C159.479873,49.732373 155.030778,43.8712721 155.030778,35.6243096 C155.030778,27.8951123 159.318837,21.7223168 166.76877,21.7223168 C173.415126,21.7223168 179.096335,26.4427812 178.078223,36.6608754" id="Fill-9" fill="white"></path>
                <g id="Group-13" transform="translate(182.436420, 21.255396)">
                    <mask id="mask-2" fill="white">
                        <use xlink:href="#path-1"></use>
                    </mask>
                    <g id="Clip-12"></g>
                    <path d="M17.925154,9.12970016 C16.7460048,9.12970016 15.7813923,8.29972271 15.7813923,7.05449765 C15.7813923,6.32859099 16.1029298,5.55039005 16.4779678,5.34276625 C16.1029298,4.35797703 15.1912827,3.68332911 13.9586331,3.68332911 C11.493334,3.68332911 8.54546101,5.91386115 7.95588642,10.582549 L7.95588642,24.6906123 L11.5302492,24.6906123 L11.5302492,27.9587456 L0.361502314,27.9587456 L0.361502314,24.6906123 L3.98990055,24.6906123 L3.98990055,4.25390625 L0.41500273,4.25390625 L0.41500273,0.986290731 L7.259311,0.986290731 L7.259311,5.18743672 C8.75946268,2.33506881 11.2793323,0.46697234 14.8702802,0.46697234 C18.9967674,0.46697234 20.8189915,3.68332911 20.4439536,6.95094463 C20.2834524,8.35149922 19.3723403,9.12970016 17.925154,9.12970016 Z" id="Fill-11" fill="white" mask="url(#mask-2)"></path>
                </g>
                <polygon id="Fill-14" fill="white" points="40.3801883 25.5095096 37.0727926 25.5095096 30.2124342 49.2138312 25.0137987 49.2138312 20.1249306 37.9130903 14.9910307 49.2138312 10.0063969 49.2138312 3.1995389 25.5095096 0.0537144181 25.5095096 0.000214001666 22.2418941 10.0973476 22.2418941 10.0973476 25.5095096 7.32656103 25.5095096 12.5257315 45.3238621 18.0346694 32.4667192 22.2157269 32.4667192 27.6936345 45.5314859 33.1068067 25.5095096 30.4970564 25.5095096 30.4970564 22.2418941 40.3801883 22.2418941"></polygon>
                <g id="Group-18" transform="translate(0.000000, 1.062558)">
                    <mask id="mask-4" fill="white">
                        <use xlink:href="#path-3"></use>
                    </mask>
                    <g id="Clip-17"></g>
                    <path d="M4.13226516,0.228334407 C4.54528838,0.228334407 6.00531474,1.02776372 6.00531474,1.42799613 C6.00531474,1.64131535 5.94967431,1.82822855 5.89510388,2.04154777 C5.78489303,2.38793262 5.48154566,3.45401095 5.12362788,4.78673831 L7.43752089,4.78673831 C7.60283718,4.78673831 7.76815346,4.86647413 7.76815346,5.02698131 C7.76815346,5.37388393 7.46534111,6.33330265 7.02449767,6.33330265 L4.71006966,6.33330265 C3.8289178,9.61179124 2.78244966,13.557679 2.78244966,14.0107235 C2.78244966,14.7573408 3.30568373,15.4501105 3.91184345,15.4501105 C4.73788988,15.4501105 6.19791624,13.3443598 7.54773175,10.9450364 C7.54773175,10.9450364 7.79543867,10.4650681 8.15335646,10.4650681 C8.51180925,10.4650681 8.84244182,10.7047934 8.84244182,11.0247722 C8.84244182,11.3452688 8.48452404,11.9577849 8.48452404,11.9577849 C6.96939225,14.6237574 5.61957674,17.0500046 3.6363163,17.0500046 C2.31432101,17.0500046 -0.000107000833,15.8767489 -0.000107000833,14.5704276 C-0.000107000833,13.6104911 0.991790719,9.74537463 1.95586822,6.33330265 L1.21221244,6.33330265 C1.07471636,6.33330265 0.909400078,6.22664304 0.909400078,6.06613586 C0.909400078,5.7466748 1.18439222,4.78673831 1.62523565,4.78673831 L2.39671165,4.78673831 L3.52610544,0.788038476 C3.6363163,0.388323822 3.88402323,0.228334407 4.13226516,0.228334407" id="Fill-16" fill="white" mask="url(#mask-4)"></path>
                </g>
                <g id="Group-21" transform="translate(5.885046, 0.027027)">
                    <mask id="mask-6" fill="white">
                        <use xlink:href="#path-5"></use>
                    </mask>
                    <g id="Clip-20"></g>
                    <path d="M5.10586574,0.490737758 C5.51942396,0.490737758 6.97891532,1.29068483 6.97891532,1.69039948 C6.97891532,1.9037187 6.92380989,2.0906319 6.86870446,2.30395112 C6.23525953,4.5427674 5.57399438,6.91568483 5.57399438,6.91568483 C5.57399438,6.91568483 7.39193853,5.55603369 9.0451014,5.55603369 C9.84332761,5.55603369 11.2209633,6.64903581 11.2209633,7.63537831 C11.2209633,8.88785208 9.37519897,14.1664672 9.37519897,15.5789304 C9.37519897,16.0858224 9.76093697,16.4855371 10.0637493,16.4855371 C10.8903308,16.4855371 12.3498221,14.3797865 13.7001726,11.980463 C13.7001726,11.980463 13.9478796,11.5004948 14.3057973,11.5004948 C14.6642501,11.5004948 14.9943477,11.74022 14.9943477,12.0607166 C14.9943477,12.3806954 14.6369649,12.9932115 14.6369649,12.9932115 C13.1218331,15.6597018 11.7720176,18.0854312 9.78875719,18.0854312 C8.8519649,18.0854312 6.73120839,17.0990887 6.73120839,16.1391522 C6.73120839,14.4325985 8.43894168,9.2880845 8.43894168,8.27533597 C8.43894168,7.82177375 7.94299282,7.42205909 7.58507504,7.42205909 C6.92380989,7.42205909 5.27118203,8.4084016 4.91272924,9.55473352 C4.16907345,11.8209913 2.9294688,16.6460443 2.7368673,17.4718796 C2.65394166,17.8187822 2.5442658,18.0854312 2.1585278,18.0854312 C1.68986415,18.0854312 0.367868863,17.4718796 0.367868863,16.9390993 C0.367868863,15.899427 3.75658524,3.44976528 4.50024103,1.05044183 C4.60991688,0.650727172 4.85762381,0.490737758 5.10586574,0.490737758" id="Fill-19" fill="white" mask="url(#mask-6)"></path>
                </g>
                <path d="M26.0583408,7.87562132 C26.0583408,7.58256627 25.5902122,7.20873987 25.3697905,7.20873987 C24.1852912,7.20873987 22.5326634,10.3277568 22.3122417,12.0876404 C24.5983145,12.0876404 26.0583408,9.04835926 26.0583408,7.87562132 M27.9319254,13.8470062 C27.9319254,13.8470062 28.1796323,13.4203677 28.5375501,13.4203677 C28.8960029,13.4203677 29.2261005,13.660093 29.2261005,13.9805896 C29.2261005,14.3000506 28.8676477,14.8597547 28.8676477,14.8597547 C27.9864958,16.2194058 26.4991843,18.112355 23.9097641,18.112355 C22.2571362,18.112355 19.1995874,16.2463296 19.1995874,14.3000506 C19.1995874,10.1144376 22.3395269,5.58295747 24.7090603,5.58295747 C26.471899,5.58295747 28.2898432,6.94260862 28.2898432,8.00920471 C28.2898432,9.87471235 26.3611532,13.5539511 24.5710292,13.5539511 C23.3314246,13.5539511 22.0918199,13.1801247 22.0918199,13.1801247 C22.0645347,13.4467737 22.0645347,13.7134228 22.0645347,13.953148 C22.0918199,15.5530422 23.5518463,16.4860549 24.4329982,16.4860549 C25.8930245,16.4860549 27.1599144,14.9933381 27.9319254,13.8470062" id="Fill-22" fill="white"></path>
            </g>
            <g id="Symbol" transform="translate(0.000000, 2.000000)">
                <path d="M51.709121,26.6856938 C51.5094667,33.2027062 48.8844296,39.1066321 44.7289235,43.5526321 L42.6126519,41.4363605 C46.2366025,37.5353975 48.5348741,32.376163 48.7300346,26.6856938 L51.709121,26.6856938 Z" id="Fill-1" fill="white"></path>
                <path d="M51.709121,25.0189654 L48.7300346,25.0189654 C48.5348741,19.337484 46.2366025,14.1695827 42.6126519,10.2772864 L44.7289235,8.16101481 C48.8844296,12.6070148 51.5094667,18.5019531 51.709121,25.0189654" id="Fill-3" fill="white"></path>
                <path d="M43.5482346,6.98478765 L41.4361358,9.09656543 C37.5441605,5.47261481 32.3762593,3.1746642 26.6947778,2.98367654 L26.6947778,9.62962965e-05 C33.2072963,0.204244444 39.1064074,2.82478765 43.5482346,6.98478765" id="Fill-5" fill="white"></path>
                <path d="M25.0235556,0 L25.0235556,2.98358025 C19.3420741,3.1745679 14.1831605,5.46353086 10.2818765,9.09646914 L8.16111111,6.9757037 C12.6026173,2.82469136 18.511037,0.204469136 25.0235556,0" id="Fill-7" fill="white"></path>
                <path d="M9.09646914,10.2773506 C5.46320988,14.1693259 3.17424691,19.3375481 2.98358025,25.0190296 L0,25.0190296 C0.199654321,18.5020173 2.82501235,12.607079 6.98469136,8.16107901 L9.09646914,10.2773506 Z" id="Fill-9" fill="white"></path>
                <path d="M9.09646914,41.4364247 L6.98469136,43.5526963 C2.82501235,39.1066963 0.199654321,33.2027704 0,26.685758 L2.98358025,26.685758 C3.17424691,32.3762272 5.46320988,37.5351407 9.09646914,41.4364247" id="Fill-11" fill="white"></path>
                <path d="M25.0235556,48.7300025 L25.0235556,51.7090889 C18.511037,51.5094346 12.6026173,48.8888914 8.16111111,44.737879 L10.2818765,42.6171136 C14.1831605,46.2593605 19.3420741,48.5393358 25.0235556,48.7300025" id="Fill-13" fill="white"></path>
                <path d="M43.5482346,44.7289877 C39.1064074,48.8889877 33.2072963,51.5095309 26.6947778,51.7091852 L26.6947778,48.7300988 C32.3762593,48.5391111 37.5441605,46.2504691 41.4361358,42.6172099 L43.5482346,44.7289877 Z" id="Fill-15" fill="white"></path>
                <polygon id="Fill-17" fill="white" points="29.5325618 22.1759778 29.5325618 22.1846206 29.5195975 22.1759778"></polygon>
                <polygon id="Fill-19" fill="white" points="20.6720906 25.8364247 20.6634478 25.8583404 20.6544963 25.8583404"></polygon>
                <polygon id="Fill-21" fill="white" points="29.3242123 21.3176889 27.0535457 19.9233185 23.2796938 17.598084 25.8591506 6.80776296 28.7384099 18.8878123"></polygon>
                <polygon id="Fill-23" fill="white" points="28.4387358 34.1064469 25.858958 44.8970889 22.9707111 32.8257062 22.3938963 30.3961506 24.6555753 31.7902"></polygon>
                <polygon id="Fill-25" fill="white" points="29.3242123 21.3176889 27.0535457 19.9233185 23.2796938 17.598084 25.8591506 6.80776296 28.7384099 18.8878123"></polygon>
                <polygon id="Fill-27" fill="white" points="44.9015827 25.8546247 34.1019531 28.4340815 31.7902 24.6602296 31.1819284 23.6654889 30.8956074 22.5028716 29.8694099 18.1932914 39.3244222 12.3891926 32.8257062 22.961563"></polygon>
                <polygon id="Fill-29" fill="white" points="12.3890321 39.3245827 18.8835753 28.733916 6.81700741 25.8546568 17.6073284 23.2707062 19.9280691 27.0490519 20.5411556 28.0482864 20.8136741 29.2015951 21.8488593 33.5114963"></polygon>
                <polygon id="Fill-31" fill="white" points="28.4387358 34.1064469 25.858958 44.8970889 22.9707111 32.8257062 22.3938963 30.3961506 24.6555753 31.7902"></polygon>
                <path d="M25.8591185,28.1162716 C24.6056617,28.1162716 23.5974395,27.1035556 23.5974395,25.8545926 C23.5974395,24.6056296 24.6056617,23.5974074 25.8591185,23.5974074 C27.1035877,23.5974074 28.1163037,24.6056296 28.1163037,25.8545926 C28.1163037,27.1035556 27.1035877,28.1162716 25.8591185,28.1162716 L25.8591185,28.1162716 Z M32.8255136,28.7428395 L31.5223037,26.6130864 L31.0546247,25.8590864 L31.0546247,25.8545926 L30.0011432,24.1469383 L29.0744519,22.6347654 L27.562279,21.7083951 L25.8591185,20.6590864 L22.9708716,18.8878765 L22.4075383,18.5428148 L21.8490198,18.2022469 L12.3891926,12.3891605 L18.8834148,22.9708395 L20.1959333,25.1099012 L20.6546247,25.8590864 L20.672921,25.8362963 L20.6636123,25.8590864 L20.6636123,25.8683951 L21.7170938,27.5895309 L22.6344765,29.0744198 L24.1196864,29.9873086 L25.8591185,31.0545926 L28.7473654,32.8258025 L29.3106988,33.175358 L29.8692173,33.5207407 L39.3245506,39.3245185 L32.8255136,28.7428395 Z" id="Fill-33" fill="white"></path>
            </g>
        </g>
    </g>
</svg>
